<?xml version="1.0" encoding="UTF-8" standalone="no"?>
<svg xmlns:xlink="http://www.w3.org/1999/xlink" height="162.0px" width="354.0px" xmlns="http://www.w3.org/2000/svg">
  <g transform="matrix(1.0, 0.0, 0.0, 1.0, 0.0, 0.0)">
    <path d="M354.0 18.95 L354.0 20.0 354.0 142.0 354.0 142.5 Q353.85 150.45 348.15 156.15 342.3 162.0 334.0 162.0 L333.95 162.0 20.15 162.0 20.0 162.0 Q11.7 162.0 5.85 156.15 0.15 150.45 0.0 142.5 L0.0 142.0 0.0 20.0 0.05 18.9 Q0.4 11.3 5.85 5.85 11.7 0.0 20.0 0.0 L20.15 0.0 333.95 0.0 334.0 0.0 Q342.3 0.0 348.15 5.85 353.6 11.3 354.0 18.95 M352.0 20.0 L352.0 18.95 Q351.6 12.15 346.75 7.3 341.45 2.0 334.0 2.0 L333.95 2.0 20.15 2.0 20.0 2.0 Q12.55 2.0 7.3 7.3 2.4 12.15 2.05 18.9 L2.0 20.0 2.0 142.0 2.0 142.5 Q2.15 149.65 7.3 154.75 12.55 160.0 20.0 160.0 L20.15 160.0 333.95 160.0 334.0 160.0 Q341.45 160.0 346.75 154.75 351.85 149.65 352.0 142.5 L352.0 142.0 352.0 20.0" fill="#ffffff" fill-opacity="0.49803922" fill-rule="evenodd" stroke="none"/>
    <path d="M350.0 18.9 Q349.6 12.95 345.35 8.7 340.65 4.0 334.0 4.0 L333.95 4.0 20.15 4.0 20.0 4.0 Q13.35 4.0 8.7 8.7 4.4 12.95 4.05 18.9 L4.0 20.0 4.0 142.0 4.0 142.5 Q4.15 148.8 8.7 153.35 13.35 158.0 20.0 158.0 L20.15 158.0 333.95 158.0 334.0 158.0 Q340.65 158.0 345.35 153.35 349.85 148.8 350.0 142.5 L350.0 142.0 350.0 20.0 350.0 18.9 M352.0 20.0 L352.0 142.0 352.0 142.5 Q351.85 149.65 346.75 154.75 341.45 160.0 334.0 160.0 L333.95 160.0 20.15 160.0 20.0 160.0 Q12.55 160.0 7.3 154.75 2.15 149.65 2.0 142.5 L2.0 142.0 2.0 20.0 2.05 18.9 Q2.4 12.15 7.3 7.3 12.55 2.0 20.0 2.0 L20.15 2.0 333.95 2.0 334.0 2.0 Q341.45 2.0 346.75 7.3 351.6 12.15 352.0 18.95 L352.0 20.0" fill="#ffffff" fill-rule="evenodd" stroke="none"/>
    <path d="M335.85 6.15 L335.35 6.1 334.15 6.0 334.0 6.0 333.95 6.0 20.15 6.0 20.0 6.0 Q14.2 6.0 10.1 10.1 6.4 13.8 6.05 18.9 L6.0 20.0 6.0 142.0 6.0 142.15 6.05 142.45 6.1 143.35 6.15 143.85 Q6.7 148.5 10.1 151.9 14.2 156.0 20.0 156.0 L20.15 156.0 333.95 156.0 334.0 156.0 Q339.8 156.0 343.9 151.9 347.85 148.0 348.0 142.5 L348.0 142.0 348.0 20.0 347.95 18.9 Q347.6 13.8 343.9 10.1 340.5 6.7 335.85 6.15 M350.0 18.9 L350.0 20.0 350.0 142.0 350.0 142.5 Q349.85 148.8 345.35 153.35 340.65 158.0 334.0 158.0 L333.95 158.0 20.15 158.0 20.0 158.0 Q13.35 158.0 8.7 153.35 4.15 148.8 4.0 142.5 L4.0 142.0 4.0 20.0 4.05 18.9 Q4.4 12.95 8.7 8.7 13.35 4.0 20.0 4.0 L20.15 4.0 333.95 4.0 334.0 4.0 Q340.65 4.0 345.35 8.7 349.6 12.95 350.0 18.9" fill="#983901" fill-rule="evenodd" stroke="none"/>
    <path d="M346.0 19.75 L346.0 18.9 346.0 18.0 Q346.0 13.05 342.5 9.55 339.65 6.7 335.85 6.15 340.5 6.7 343.9 10.1 347.6 13.8 347.95 18.9 L348.0 20.0 348.0 142.0 348.0 142.5 Q347.85 148.0 343.9 151.9 339.8 156.0 334.0 156.0 L333.95 156.0 20.15 156.0 20.0 156.0 Q14.2 156.0 10.1 151.9 6.7 148.5 6.15 143.85 6.7 147.65 9.55 150.5 13.0 154.0 18.0 154.0 L18.0 153.85 19.75 154.0 20.15 154.0 333.95 154.0 334.0 154.0 Q338.95 154.0 342.5 150.5 345.85 147.15 346.0 142.5 L346.0 142.0 346.0 19.75" fill="#c94b01" fill-rule="evenodd" stroke="none"/>
    <path d="M335.85 6.15 Q339.65 6.7 342.5 9.55 346.0 13.05 346.0 18.0 L346.0 18.9 346.0 19.75 345.95 18.9 Q345.6 14.65 342.5 11.55 338.95 8.0 334.0 8.0 L333.95 8.0 20.15 8.0 20.0 8.0 Q15.05 8.0 11.55 11.55 8.4 14.6 8.05 18.9 L8.0 20.0 8.0 142.0 8.0 142.5 Q8.15 147.15 11.55 150.5 14.3 153.25 18.0 153.85 L18.0 154.0 Q13.0 154.0 9.55 150.5 6.7 147.65 6.15 143.85 L6.1 143.35 6.05 142.45 6.0 142.15 6.0 142.0 6.0 20.0 6.05 18.9 Q6.4 13.8 10.1 10.1 14.2 6.0 20.0 6.0 L20.15 6.0 333.95 6.0 334.0 6.0 334.15 6.0 335.35 6.1 335.85 6.15" fill="#ffcc00" fill-rule="evenodd" stroke="none"/>
    <path d="M18.0 153.85 Q14.3 153.25 11.55 150.5 8.15 147.15 8.0 142.5 L8.0 142.0 8.0 20.0 8.05 18.9 Q8.4 14.6 11.55 11.55 15.05 8.0 20.0 8.0 L20.15 8.0 333.95 8.0 334.0 8.0 Q338.95 8.0 342.5 11.55 345.6 14.65 345.95 18.9 L346.0 19.75 346.0 142.0 346.0 142.5 Q345.85 147.15 342.5 150.5 338.95 154.0 334.0 154.0 L333.95 154.0 20.15 154.0 19.75 154.0 18.0 153.85" fill="#ff6600" fill-rule="evenodd" stroke="none"/>
  </g>
</svg>
